<?xml version="1.0" encoding="UTF-8"?>
<svg id="Layer_1" xmlns="http://www.w3.org/2000/svg" version="1.1" viewBox="0 0 400 300">
  <!-- Generator: Adobe Illustrator 30.1.0, SVG Export Plug-In . SVG Version: 2.1.1 Build 136)  -->
  <defs>
    <style>
      .st0 {
        fill: none;
      }

      .st0, .st1, .st2 {
        stroke: #231f20;
        stroke-miterlimit: 10;
      }

      .st3 {
        font-family: MyriadPro-Regular, 'Myriad Pro';
        font-size: 12px;
      }

      .st3, .st2, .st4 {
        fill: #231f20;
      }

      .st1 {
        fill: #fff;
      }

      .st4 {
        opacity: .6;
      }
    </style>
  </defs>
  <circle class="st1" cx="234.93" cy="130.75" r="106.36"/>
  <polyline class="st0" points="19.64 195.08 27.67 189.59 263.56 28.29"/>
  <polyline class="st0" points="19.64 195.08 30.04 195.62 305.8 210.06"/>
  <circle class="st2" cx="237.43" cy="133.25" r=".5"/>
  <text class="st3" transform="translate(8.67 198.6)"><tspan x="0" y="0">A</tspan></text>
  <text class="st3" transform="translate(263.56 22.13)"><tspan x="0" y="0">B</tspan></text>
  <text class="st3" transform="translate(308.26 221.63)"><tspan x="0" y="0">C</tspan></text>
  <text class="st3" transform="translate(239.42 142.79)"><tspan x="0" y="0">O</tspan></text>
  <text class="st3" transform="translate(118.73 118.31)"><tspan x="0" y="0">D</tspan></text>
  <text class="st3" transform="translate(149.04 214.91)"><tspan x="0" y="0">E</tspan></text>
  <path class="st4" d="M30.05,195.42c0,.07,0,.13-.01.2l-10.4-.54,8.03-5.49c1.5,1.64,2.38,3.65,2.38,5.83Z"/>
</svg>